<?xml version="1.0" encoding="UTF-8" standalone="no" ?>
<!DOCTYPE svg PUBLIC "-//W3C//DTD SVG 1.1//EN" "http://www.w3.org/Graphics/SVG/1.1/DTD/svg11.dtd">
<svg xmlns="http://www.w3.org/2000/svg" xmlns:xlink="http://www.w3.org/1999/xlink" version="1.1" width="400" height="400" viewBox="0 0 400 400" xml:space="preserve">
<desc>Created with Fabric.js 3.6.2</desc>
<defs>
</defs>
<g transform="matrix(8.7 0 0 8.7 200 200)" id="Layer_1"  >
<path style="stroke: none; stroke-width: 1; stroke-dasharray: none; stroke-linecap: butt; stroke-dashoffset: 0; stroke-linejoin: miter; stroke-miterlimit: 4; fill: rgb(0,0,0); fill-rule: nonzero; opacity: 1;"  transform=" translate(-12, -12)" d="M 19.7 0.5 H 4.3 c -2.1 0 -3.8 1.7 -3.8 3.8 v 15.4 c 0 2.1 1.7 3.8 3.8 3.8 h 15.4 c 2.1 0 3.8 -1.7 3.8 -3.8 V 4.3 C 23.5 2.2 21.8 0.5 19.7 0.5 z M 14.8 20.7 c -0.5 0.1 -0.7 0 -0.9 -0.2 c -0.2 -0.2 -0.3 -0.4 -0.3 -0.7 l 0 -0.5 c 0 -0.4 0 -1.1 0 -1.8 c 0 -0.8 -0.3 -1.1 -0.4 -1.2 c -0.1 -0.1 -0.2 -0.3 -0.1 -0.5 c 0.1 -0.2 0.2 -0.3 0.4 -0.3 c 1.8 -0.2 3.4 -0.8 3.4 -3.7 c 0 -0.8 -0.2 -1.4 -0.7 -1.9 C 16 9.7 16 9.5 16 9.3 c 0.1 -0.2 0.3 -0.8 0 -1.6 c -0.3 0 -0.8 0.2 -1.7 0.8 c -0.1 0.1 -0.3 0.1 -0.4 0.1 c -0.6 -0.2 -1.3 -0.3 -2 -0.3 c -0.7 0 -1.4 0.1 -2 0.3 c -0.1 0 -0.3 0 -0.4 -0.1 C 8.8 8 8.2 7.8 7.9 7.8 c -0.2 0.8 0 1.4 0 1.6 C 8 9.5 8 9.7 7.9 9.8 c -0.5 0.5 -0.7 1.2 -0.7 1.9 c 0 2.9 1.7 3.5 3.4 3.7 c 0.3 0 0.5 0.3 0.4 0.5 c 0 0.3 -0.3 0.4 -0.5 0.4 c -1.8 -0.2 -4.3 -0.9 -4.3 -4.6 c 0 -0.9 0.3 -1.7 0.8 -2.4 C 6.8 8.9 6.7 8.1 7.1 7.1 C 7.2 7 7.3 6.9 7.4 6.8 c 0.2 -0.1 1 -0.2 2.5 0.8 c 0.6 -0.2 1.3 -0.2 2 -0.2 c 0.7 0 1.4 0.1 2 0.2 c 1.6 -1 2.4 -0.9 2.5 -0.8 c 0.1 0 0.2 0.1 0.3 0.3 c 0.4 1 0.3 1.8 0.2 2.3 c 0.5 0.7 0.8 1.5 0.8 2.4 c 0 3.2 -1.8 4.2 -3.5 4.5 c 0.1 0.3 0.2 0.8 0.2 1.2 c 0 0.8 0 1.4 0 1.8 l 0 0.4 c 3.2 -1.1 5.3 -4.1 5.3 -7.5 c 0 -4.4 -3.5 -7.9 -7.9 -7.9 c -4.4 0 -7.9 3.6 -7.9 7.9 c 0 3.4 2.2 6.5 5.4 7.5 c -0.1 -0.1 -0.1 -1.1 -0.1 -1.8 c -0.1 0 -0.2 0 -0.4 0 c -1.5 0 -2.3 -1 -2.5 -1.6 c -0.1 -0.3 0.1 -0.5 0.3 -0.6 c 0.3 -0.1 0.5 0.1 0.6 0.3 c 0 0.1 0.5 1.2 2.3 0.8 c 0.3 -0.1 0.5 0.1 0.6 0.4 c 0 0.1 0 0.2 0 0.2 c 0 0 0 0.1 0 0.1 c 0 0.7 0 2 0 2.2 c 0 0.3 -0.1 0.5 -0.3 0.7 c -0.1 0.1 -0.3 0.2 -0.6 0.2 c -0.1 0 -0.1 0 -0.2 0 c -3.7 -1.2 -6.1 -4.6 -6.1 -8.5 c 0 -4.9 4 -8.9 8.9 -8.9 c 4.9 0 8.9 4 8.9 8.9 C 20.9 16.1 18.4 19.4 14.8 20.7 z" stroke-linecap="round" />
</g>
</svg>