<?xml version="1.0" encoding="UTF-8" standalone="no" ?>
<!DOCTYPE svg PUBLIC "-//W3C//DTD SVG 1.1//EN" "http://www.w3.org/Graphics/SVG/1.1/DTD/svg11.dtd">
<svg xmlns="http://www.w3.org/2000/svg" xmlns:xlink="http://www.w3.org/1999/xlink" version="1.1" width="400" height="400" viewBox="0 0 400 400" xml:space="preserve">
<desc>Created with Fabric.js 3.6.2</desc>
<defs>
</defs>
<g transform="matrix(8.7 0 0 8.7 200 200)" id="Layer_1"  >
<path style="stroke: none; stroke-width: 1; stroke-dasharray: none; stroke-linecap: butt; stroke-dashoffset: 0; stroke-linejoin: miter; stroke-miterlimit: 4; fill: rgb(0,0,0); fill-rule: nonzero; opacity: 1;"  transform=" translate(-12, -12)" d="M 19.7 0.5 H 4.3 c -2.1 0 -3.8 1.7 -3.8 3.8 v 15.4 c 0 2.1 1.7 3.8 3.8 3.8 h 15.4 c 2.1 0 3.8 -1.7 3.8 -3.8 V 4.3 C 23.5 2.2 21.8 0.5 19.7 0.5 z M 11.7 3 c 2.1 0.1 3.7 0.7 5.3 1.9 c 1.9 1.4 3 3.3 3.5 5.8 c 0.1 0.6 0.2 1.1 0.2 1.9 c 0 0.3 -0.2 0.5 -0.5 0.5 c 0 0 0 0 0 0 c -0.3 0 -0.5 -0.2 -0.5 -0.5 c 0 -0.7 -0.1 -1.2 -0.2 -1.8 c -0.4 -2.2 -1.4 -3.9 -3.1 -5.2 C 15 4.6 13.5 4.1 11.6 4 c -0.3 0 -0.5 -0.2 -0.5 -0.5 C 11.2 3.2 11.4 3 11.7 3 z M 14.7 7.3 C 14 6.9 13 6.6 12.1 6.6 c -0.3 0 -0.5 -0.3 -0.4 -0.5 c 0 -0.3 0.3 -0.5 0.5 -0.4 c 1 0.1 2.2 0.4 2.9 0.9 c 0.9 0.5 1.6 1.3 2.2 2.2 c 0.5 0.8 0.7 1.9 0.7 2.9 c 0 0.3 -0.2 0.5 -0.5 0.5 c -0.3 0 -0.5 -0.2 -0.5 -0.5 c 0 -0.8 -0.2 -1.7 -0.6 -2.4 C 16.1 8.4 15.4 7.8 14.7 7.3 z M 15.5 11 c 0 0.3 -0.2 0.5 -0.4 0.5 c 0 0 0 0 0 0 c -0.2 0 -0.5 -0.2 -0.5 -0.4 c 0 -0.4 -0.1 -0.7 -0.2 -1 c -0.2 -0.5 -0.6 -0.8 -1.4 -0.9 c -0.3 0 -0.5 -0.3 -0.4 -0.5 s 0.3 -0.5 0.5 -0.4 c 1.1 0.1 1.8 0.6 2.2 1.4 C 15.4 10 15.5 10.4 15.5 11 z M 20.7 18.2 c -0.2 0.6 -1.1 1.7 -1.7 2.1 c -0.6 0.4 -1 0.6 -1.6 0.6 l -0.2 0 c -0.4 0 -0.6 -0.1 -1.1 -0.3 c -0.2 -0.1 -0.5 -0.2 -0.7 -0.3 l -0.7 -0.3 c 0 0 -0.1 0 -0.1 0 l -0.5 -0.2 c 0 0 -0.1 0 -0.1 0 l -0.6 -0.3 c -0.1 -0.1 -0.2 -0.1 -0.3 -0.2 l -0.6 -0.4 c -0.1 -0.1 -0.2 -0.1 -0.3 -0.2 l -0.7 -0.5 c -1.9 -1.3 -3.6 -3 -5.1 -4.9 c -0.2 -0.2 -0.3 -0.4 -0.5 -0.6 c -0.1 -0.2 -0.3 -0.4 -0.4 -0.6 C 4.7 10.7 4 9.3 3.5 7.8 C 3.1 6.8 3 6.1 3.4 5.3 C 3.6 5 4.3 4.4 4.7 4.1 c 0.8 -0.6 1.2 -0.8 1.5 -0.9 c 0.3 -0.1 0.7 0 1 0.1 c 0.1 0 0.3 0.1 0.4 0.2 c 0.6 0.4 2.2 2.4 2.6 3.3 c 0.3 0.7 0.4 1.2 0.3 1.6 c -0.1 0.5 -0.4 0.7 -1.1 1.2 C 9.3 9.8 9.2 9.9 9.1 10 c 0 0 -0.1 0.1 -0.1 0.1 c 0 0 -0.1 0.2 -0.1 0.3 c 0 0.3 0.2 1.1 0.6 1.7 c 0.3 0.5 0.8 1.1 1.3 1.5 c 0.6 0.5 1.1 0.9 1.7 1.2 c 0.6 0.3 1 0.4 1.2 0.3 c 0.1 0 0.1 0 0.1 -0.1 c 0 0 0.2 -0.2 0.4 -0.5 c 0.4 -0.6 0.6 -0.8 1.1 -0.9 c 0.5 -0.2 1 -0.1 1.6 0.1 c 0.3 0.2 1 0.6 1.5 0.9 c 0.5 0.4 1.8 1.4 2 1.7 C 20.9 16.9 21 17.5 20.7 18.2 z" stroke-linecap="round" />
</g>
</svg>